<?xml version="1.0" encoding="UTF-8" standalone="no"?>
<!-- Created with Inkscape (http://www.inkscape.org/) -->

<svg
   xmlns:dc="http://purl.org/dc/elements/1.1/"
   xmlns:cc="http://creativecommons.org/ns#"
   xmlns:rdf="http://www.w3.org/1999/02/22-rdf-syntax-ns#"
   xmlns:svg="http://www.w3.org/2000/svg"
   xmlns="http://www.w3.org/2000/svg"
   xmlns:xlink="http://www.w3.org/1999/xlink"
   xmlns:sodipodi="http://sodipodi.sourceforge.net/DTD/sodipodi-0.dtd"
   xmlns:inkscape="http://www.inkscape.org/namespaces/inkscape"
   width="620"
   height="460"
   id="svg2"
   version="1.1"
   inkscape:version="0.47 r22583"
   sodipodi:docname="SuperClog.svg">
  <defs
     id="defs4">
    <linearGradient
       id="linearGradient3662">
      <stop
         style="stop-color:#000000;stop-opacity:1;"
         offset="0"
         id="stop3664" />
      <stop
         style="stop-color:#d1cfcb;stop-opacity:1;"
         offset="1"
         id="stop3666" />
    </linearGradient>
    <linearGradient
       id="linearGradient3623">
      <stop
         style="stop-color:#dd0000;stop-opacity:1;"
         offset="0"
         id="stop3625" />
      <stop
         style="stop-color:#6b0000;stop-opacity:1;"
         offset="1"
         id="stop3627" />
    </linearGradient>
    <linearGradient
       id="linearGradient3601">
      <stop
         style="stop-color:#ffd186;stop-opacity:1;"
         offset="0"
         id="stop3603" />
      <stop
         style="stop-color:#a2642b;stop-opacity:1;"
         offset="1"
         id="stop3605" />
    </linearGradient>
    <inkscape:perspective
       sodipodi:type="inkscape:persp3d"
       inkscape:vp_x="0 : 526.18109 : 1"
       inkscape:vp_y="0 : 1000 : 0"
       inkscape:vp_z="744.09448 : 526.18109 : 1"
       inkscape:persp3d-origin="372.04724 : 350.78739 : 1"
       id="perspective10" />
    <radialGradient
       inkscape:collect="always"
       xlink:href="#linearGradient3601"
       id="radialGradient3607"
       cx="320.12424"
       cy="555.27081"
       fx="320.12424"
       fy="555.27081"
       r="252.71204"
       gradientTransform="matrix(1.2318404,-0.32577567,0.16899307,0.63900562,-308.41178,597.95263)"
       gradientUnits="userSpaceOnUse" />
    <radialGradient
       inkscape:collect="always"
       xlink:href="#linearGradient3601"
       id="radialGradient3619"
       cx="618.97797"
       cy="364.07614"
       fx="618.97797"
       fy="364.07614"
       r="117.17744"
       gradientTransform="matrix(1,0,0,0.31912028,-140.35714,569.12495)"
       gradientUnits="userSpaceOnUse" />
    <radialGradient
       inkscape:collect="always"
       xlink:href="#linearGradient3623"
       id="radialGradient3629"
       cx="549.67346"
       cy="375.05643"
       fx="549.67346"
       fy="375.05643"
       r="99.190918"
       gradientTransform="matrix(0.08149586,0.32906106,-1.5163608,0.37554463,933.24116,369.64209)"
       gradientUnits="userSpaceOnUse" />
    <inkscape:perspective
       id="perspective3647"
       inkscape:persp3d-origin="427 : 216.33333 : 1"
       inkscape:vp_z="854 : 324.5 : 1"
       inkscape:vp_y="0 : 1000 : 0"
       inkscape:vp_x="0 : 324.5 : 1"
       sodipodi:type="inkscape:persp3d" />
    <radialGradient
       inkscape:collect="always"
       xlink:href="#linearGradient3662"
       id="radialGradient3668"
       cx="416.97681"
       cy="480.78906"
       fx="416.97681"
       fy="480.78906"
       r="98.272896"
       gradientTransform="matrix(2.9064838,-2.7629901,2.9098593,4.3653698,-2073.9801,-663.33012)"
       gradientUnits="userSpaceOnUse" />
  </defs>
  <sodipodi:namedview
     id="base"
     pagecolor="#ffffff"
     bordercolor="#666666"
     borderopacity="1.0"
     inkscape:pageopacity="0.0"
     inkscape:pageshadow="2"
     inkscape:zoom="1.4"
     inkscape:cx="318.17951"
     inkscape:cy="317.79617"
     inkscape:document-units="px"
     inkscape:current-layer="layer1"
     showgrid="false"
     inkscape:window-width="1920"
     inkscape:window-height="1138"
     inkscape:window-x="-8"
     inkscape:window-y="-8"
     inkscape:window-maximized="1" />
  <metadata
     id="metadata7">
    <rdf:RDF>
      <cc:Work
         rdf:about="">
        <dc:format>image/svg+xml</dc:format>
        <dc:type
           rdf:resource="http://purl.org/dc/dcmitype/StillImage" />
      </cc:Work>
    </rdf:RDF>
  </metadata>
  <g
     inkscape:label="Layer 1"
     inkscape:groupmode="layer"
     id="layer1"
     transform="translate(0,-592.36218)">
    <path
       sodipodi:type="arc"
       style="fill:#ffffff;fill-opacity:1;fill-rule:nonzero;stroke:#000000;stroke-width:3.5999999;stroke-linecap:square;stroke-linejoin:miter;stroke-miterlimit:4;stroke-opacity:1;stroke-dasharray:none;stroke-dashoffset:12.99999952"
       id="path3674"
       sodipodi:cx="264.65997"
       sodipodi:cy="151.50247"
       sodipodi:rx="358.60416"
       sodipodi:ry="186.87822"
       d="m 623.26413,151.50247 c 0,103.20999 -160.55255,186.87822 -358.60416,186.87822 -198.051604,0 -358.604153,-83.66823 -358.604153,-186.87822 0,-103.209989 160.552549,-186.878218 358.604153,-186.878218 197.80844,0 358.26008,83.470555 358.60362,186.553668"
       transform="matrix(0.82550528,-0.45595772,0.4502175,0.83603038,23.606489,818.51844)"
       sodipodi:start="0"
       sodipodi:end="6.2814486"
       sodipodi:open="true" />
    <path
       style="fill:url(#radialGradient3607);fill-opacity:1;stroke:#ff0000;stroke-width:1.8182745;stroke-linecap:square;stroke-linejoin:miter;stroke-miterlimit:4;stroke-opacity:0;stroke-dasharray:none;stroke-dashoffset:12.99999952"
       d="m 125.1584,1014.3465 c -22.03998,-1.6688 -41.631733,-15.38563 -54.379203,-38.0728 -13.74802,-24.46792 -17.3872,-56.04511 -9.16456,-79.5209 3.41285,-9.74373 11.45935,-22.29859 18.66966,-29.13001 6.48288,-6.14223 13.06368,-10.08662 28.839343,-17.28567 19.31349,-8.8135 27.93958,-14.37921 38.01377,-24.5272 10.02246,-10.09589 16.63233,-19.94984 25.73199,-38.36113 l 5.20586,-10.53296 0.8545,2.57267 c 0.46998,1.41498 1.94392,4.22289 3.27541,6.23982 18.25303,27.64943 78.74017,58.31305 120.86635,61.27255 3.99787,0.28086 4.92585,0.21586 4.93175,-0.34545 0.004,-0.38028 1.10309,-2.96425 2.44245,-5.74217 4.60883,-9.55905 13.99287,-22.23119 28.98668,-39.14341 8.74033,-9.85863 25.29686,-27.16882 32.85568,-34.3513 2.72008,-2.58466 4.76564,-4.85433 4.54568,-5.04371 -0.21995,-0.18938 -4.71832,-1.53527 -9.99636,-2.99087 -37.3386,-10.29738 -76.3372,-24.05898 -97.9848,-34.57633 -15.59002,-7.57431 -24.11277,-13.07143 -30.19784,-19.47743 l -3.59967,-3.78951 2.88303,-0.87773 c 4.15724,-1.26564 9.49009,-2.29154 15.11094,-2.90694 8.96404,-0.98142 8.97141,-0.98007 20.76221,3.80376 13.13668,5.32989 29.43438,11.25827 41.50835,15.09891 5.00025,1.59055 9.2787,3.21845 9.50766,3.61756 0.25136,0.43816 0.80107,0.60354 1.38747,0.41742 0.53414,-0.16953 5.25009,0.84154 10.47988,2.24681 17.79305,4.7811 35.23298,8.32759 52.36612,10.64888 24.57045,3.32894 52.12135,3.59654 73.23606,0.71133 30.17071,-4.12266 55.58757,-14.58954 69.73685,-28.71823 7.01851,-7.00829 10.45481,-13.09014 11.20324,-19.82842 l 0.37719,-3.39591 3.36535,7.10987 c 6.95348,14.69038 11.67722,28.14773 13.30294,37.89845 0.82139,4.92639 0.81179,6.0155 -0.22468,25.50635 -1.28821,24.22546 -2.22464,36.07294 -3.6016,45.56684 -3.54724,24.45769 -10.24943,36.36802 -26.43024,46.96869 -7.45316,4.88284 -11.35187,6.93309 -29.84833,15.69659 -8.61155,4.08009 -23.61231,11.46889 -33.33503,16.41956 -29.32255,14.93062 -32.51935,16.14592 -38.13326,14.49677 -1.52786,-0.44884 -4.5962,-1.97694 -6.81853,-3.3958 -9.41628,-6.01187 -14.21896,-7.55864 -23.46942,-7.55864 -12.29405,0 -26.36114,3.94823 -41.38225,11.61482 -15.10084,7.70727 -30.4168,19.65532 -47.02273,36.68263 -7.31064,7.49615 -12.4596,13.17577 -31.55428,34.80631 -23.50597,26.6276 -37.52193,37.20023 -55.51276,41.87463 -9.21211,2.3935 -16.7596,3.3152 -39.45456,4.8182 -8.61155,0.5702 -22.81682,1.596 -31.56727,2.2795 -21.68725,1.6939 -20.81198,1.6546 -26.76904,1.2036 l 0,0 z"
       id="path2827" />
    <g
       id="g3650"
       transform="matrix(0.2106047,0.09832497,-0.14038445,0.1034314,207.77587,695.28587)">
      <g
         id="g3655"
         transform="translate(870.94439,138.8787)">
        <path
           style="fill:#ffff00;fill-opacity:1"
           d="M -109.2868,44.690109 -238.3765,-86.401575 -747.22418,-85.805856 -875.0872,44.234319 -492.4668,483.95641 z"
           id="path3049-4-9-2"
           inkscape:connector-curvature="0"
           sodipodi:nodetypes="cccccc" />
        <path
           style="fill:#000000;fill-opacity:1"
           d="M -109.28719,44.689629 -238.37695,-86.402058 -747.22461,-85.806339 -875.08763,44.233839 -492.4672,483.95593 z M -597.01348,305.60722 c 2.83068,0.50734 14.18016,2.48213 23.37236,3.81773 51.30117,7.45398 115.27933,7.95012 153.5229,1.85534 11.96657,-1.9072 24.22118,-4.06499 31.95814,-6.18581 l -103.43697,118.51535 z m -45.19416,-53.17698 -78.18571,-88.4447 c 32.33771,10.36541 67.86197,16.67734 164.02462,20.56514 197.40362,4.97672 221.59177,18.67004 220.49962,41.86771 -1.29241,27.45145 -51.6618,47.00651 -163.80559,45.35481 -39.71278,-58.32741 -129.43244,-62.16253 -142.53294,-19.34296 z m 375.31435,-112.11738 c -20.49998,-27.75946 -61.52981,-49.354561 -118.21515,-57.638451 -66.13116,-7.55126 -111.77331,-0.93128 -166.68777,-3.9686 -73.19903,-2.97554 -104.95528,-33.878 -101.40727,-62.05231 13.64181,-74.737771 149.81531,-72.416747 200.33959,-62.138391 52.05712,12.671695 82.99662,47.338751 90.07503,90.495041 l 0.62532,3.81251 117.44304,1.19375 -0.0613,-96.323232 86.77789,89.757372 -99.23227,113.292901 c -3.99995,-7.13921 -6.95754,-12.77503 -9.65711,-16.43059 z m -559.42357,-97.246601 94.38153,-98.67917 81.10674,0.945872 C -721.78638,-25.734941 -769.44204,45.464749 -765.82952,111.3637 z m 455.54153,-98.430406 67.56477,-2.7e-4 c 0,0 0.0275,-1.358639 -0.1381,6.816065 -0.85616,16.046791 -6.42942,29.731851 -23.95275,44.554701 -12.70313,-20.35537 -33.62039,-44.172102 -43.47392,-51.370496 z"
           id="path3049-4-9"
           inkscape:connector-curvature="0"
           sodipodi:nodetypes="cccccccssccccccsccsccccscccccscccccccccc" />
        <path
           style="fill:#ff0000"
           d="m -111.72016,45.110319 -126.97155,-130.027457 -507.5625,0.585938 -126.78125,128.403079 380.5625,437.046531 z m -488.6894,258.810391 c 2.78397,0.49873 18.56592,2.98432 27.60727,4.29805 50.45988,7.33196 115.01839,7.8196 152.63459,1.82486 11.77001,-1.87573 28.17001,-5.08475 35.78068,-7.171 l -107.17383,122.81952 z m -41.59617,-48.55598 -82.45981,-94.35941 c 33.16536,12.09727 69.99219,18.39054 169.1957,22.21474 199.58275,5.53151 220.18615,18.90329 221.17425,41.7242 1.30586,30.15992 -57.41189,50.70604 -166.17868,48.31274 -43.49341,-61.07298 -130.74761,-60.8244 -141.73146,-17.89227 z m 372.80695,-115.84882 c -20.93269,-28.07239 -64.17086,-47.522571 -119.9257,-55.670561 -69.68767,-7.33369 -110.88653,-0.52763 -164.89988,-3.51524 -71.99834,-2.9263 -104.27359,-36.07744 -100.7833,-63.78947 14.49625,-81.514026 163.46311,-71.585364 202.8347,-62.834094 51.20313,12.4638 82.98885,43.935504 90.47557,89.581724 l 0.61506,3.75 114.45248,0.78125 0.32408,-97.816654 90.11966,93.120134 -101.79292,116.204121 c -4.51078,-9.71192 -8.74801,-16.22818 -11.41975,-19.81121 z m -559.27418,-96.227311 96,-100.133874 86.86633,1.38454 c -69.79393,28.457364 -124.89128,97.491004 -118.26425,171.530255 z m 454.08263,-99.978394 72.41737,-0.27194 0,6.84004 c 0,19.88365 -9.98777,36.932494 -25.86499,48.251664 -13.98934,-22.05868 -31.69854,-42.849194 -46.55238,-54.819764 z"
           id="path3049-4"
           inkscape:connector-curvature="0"
           sodipodi:nodetypes="cccccccssccccccsccsccccscccccscccccccscc" />
      </g>
    </g>
    <path
       style="fill:#ffffff;stroke:#ffffff;stroke-width:1px;stroke-linecap:butt;stroke-linejoin:miter;stroke-opacity:1"
       d="m 183.77556,761.32949 c 7.57614,-16.16244 20.96066,-46.21448 34.97653,-52.78047 14.01587,-6.56599 -12.87944,-7.19733 -12.87944,-7.19733 l -32.19862,5.80837 4.67196,44.95179 5.42957,9.21764 z"
       id="path3670" />
    <path
       id="path2820"
       style="fill:none;stroke:#000000;stroke-width:1px;stroke-linecap:butt;stroke-linejoin:miter;stroke-opacity:1"
       d="m 540.888,675.47518 c 0,0 21.82328,39.55394 20.81088,59.96916 -4.35113,87.74155 -3.74467,99.86023 -54.54824,123.23861 -37.9145,17.44719 -41.41625,21.2132 -65.65991,32.32488 -22.69094,10.40001 -18.23104,-16.63895 -57.77271,-7.55889 -44.10252,10.12739 -75.63325,48.06203 -102.84155,79.27972 -48.87601,56.07834 -55.88039,43.90214 -143.26475,52.37204 -67.116443,6.5054 -95.667583,-81.11496 -74.147233,-125.05587 22.05063,-45.02365 52.380703,-32.4986 84.530833,-66.06578 C 192.69161,777.31271 183.6041,696.06861 263.50762,696.51449 502.50831,798.8004 594.89466,669.51494 514.27728,662.5549 494.9887,662.30921 415.0816,647.77335 307.11062,713.13124"
       sodipodi:nodetypes="cssssssssccc" />
    <path
       style="fill:none;stroke:#000000;stroke-width:1px;stroke-linecap:butt;stroke-linejoin:miter;stroke-opacity:1"
       d="m 325.32318,720.29205 c 31.31473,-32.32488 174.75639,-59.09393 195.46452,-45.96194 20.70813,13.13198 -16.66752,50.00255 -133.34013,58.08377"
       id="path2823"
       sodipodi:nodetypes="css" />
    <path
       style="fill:none;stroke:#000000;stroke-width:1px;stroke-linecap:butt;stroke-linejoin:miter;stroke-opacity:1"
       d="m 233.90438,700.59407 c 15.15229,29.29443 141.92643,62.12438 141.92643,62.12438 0,0 -61.34761,58.3497 -68.69037,83.84266 -51.0127,-1.51522 -130.30968,-46.97209 -128.79445,-74.75128"
       id="path2825"
       sodipodi:nodetypes="cccs" />
    <path
       style="fill:url(#radialGradient3619);fill-opacity:1;fill-rule:nonzero;stroke:#ff0000;stroke-width:1.8182745;stroke-linecap:square;stroke-linejoin:miter;stroke-miterlimit:4;stroke-opacity:0;stroke-dasharray:none;stroke-dashoffset:12.99999952"
       d="m 420.17345,734.7831 c -5.45052,-0.20511 -24.66314,-1.70222 -24.9013,-1.94038 -0.2441,-0.2441 3.08917,-0.69546 7.72871,-1.04656 2.22233,-0.16817 8.47265,-0.8637 13.88959,-1.54562 48.91855,-6.15813 85.95887,-18.42742 102.62812,-33.99466 8.0398,-7.50829 9.59062,-15.13405 4.1784,-20.54627 -4.04651,-4.04651 -9.99475,-5.29766 -25.20859,-5.30234 -20.60705,-0.006 -47.77829,3.70073 -78.56747,10.71924 -41.32285,9.41971 -75.49338,22.47467 -90.63424,34.62711 l -3.2701,2.62466 -8.35197,-2.62466 c -4.59358,-1.44357 -8.34889,-2.73831 -8.34512,-2.87721 0.01,-0.35889 15.04487,-8.79322 23.72831,-13.31097 32.32629,-16.81847 68.82932,-28.98607 103.2881,-34.42917 19.08318,-3.01437 41.90518,-3.91856 64.9023,-2.57138 7.63928,0.44752 15.36695,1.04732 17.17259,1.33289 7.88173,1.24656 15.50959,4.69266 19.29449,8.71683 5.53002,5.87961 5.5347,14.85654 0.0123,23.59429 -9.94294,15.73213 -34.58635,28.97176 -64.76366,34.79417 -15.09047,2.91155 -36.0227,4.41068 -52.78047,3.78003 z"
       id="path3611" />
    <path
       style="fill:url(#radialGradient3629);fill-opacity:1;fill-rule:nonzero;stroke:#ff0000;stroke-width:1.8182745;stroke-linecap:square;stroke-linejoin:miter;stroke-miterlimit:4;stroke-opacity:0;stroke-dasharray:none;stroke-dashoffset:12.99999952"
       d="m 372.94882,729.54619 c -16.44307,-3.05283 -42.85311,-9.39339 -44.10484,-10.58876 -0.99682,-0.95192 9.04357,-7.64556 18.378,-12.25208 31.10706,-15.35126 86.45665,-29.50723 132.96796,-34.00728 9.62557,-0.9313 26.28429,-1.03642 31.65485,-0.19976 7.51937,1.17141 11.63351,3.76532 13.12106,8.27266 2.40766,7.29527 -6.97478,17.38408 -24.21075,26.0335 -23.10777,11.59602 -58.13403,19.81972 -101.28978,23.78149 -5.83363,0.53553 -11.85666,0.9532 -13.38452,0.92814 -1.52785,-0.025 -7.43725,-0.91062 -13.13198,-1.96791 z"
       id="path3621" />
    <path
       style="fill:#e9ddaf;fill-opacity:1;fill-rule:nonzero;stroke:#ffffff;stroke-width:1.8182745;stroke-linecap:square;stroke-linejoin:miter;stroke-miterlimit:4;stroke-opacity:0;stroke-dasharray:none;stroke-dashoffset:12.99999952"
       d="m 299.68174,845.20603 c -30.19694,-3.03111 -72.22002,-20.99507 -98.74241,-42.21026 -11.45658,-9.16408 -19.28732,-18.7873 -21.12221,-25.95711 -0.812,-3.1729 -1.36535,-1.45056 5.31798,-16.55258 2.24598,-5.07512 4.14005,-9.16623 4.20906,-9.09137 0.069,0.0749 2.44411,10.36391 5.27802,22.86455 2.83391,12.50064 5.19392,22.77293 5.24447,22.8273 0.12597,0.13552 142.44996,-7.58136 142.67024,-7.73565 0.0969,-0.0679 -1.81639,-6.10504 -4.25179,-13.41591 l -4.42801,-13.29249 -53.42078,-24.87501 -53.42078,-24.87501 -5.71449,-0.0205 -5.7145,-0.0205 1.76777,-1.5304 c 2.54666,-2.20472 9.16483,-6.21267 12.83308,-7.77169 l 3.15385,-1.34041 5.01225,4.97264 c 8.17441,8.10981 19.55731,14.83322 40.62012,23.9926 21.60511,9.39521 57.18076,21.48482 87.52117,29.74216 l 7.97166,2.16954 -3.93105,3.62591 c -4.85548,4.47858 -25.73219,26.44696 -33.57119,35.32667 -14.96387,16.95046 -26.15621,32.64917 -29.43757,41.28998 -1.02529,2.6999 -0.6197,2.60283 -7.84489,1.87759 z"
       id="path3672" />
  </g>
</svg>
